# xmcd
#
# Track frame offsets: 
#        150
#        12227
#        24515
#        38560
#        51385
#        64362
#        76487
#        88590
#        101420
#        116755
#        132647
#        144410
#        158097
#        170665
#        183405
#        197640
#        210447
#        222745
#        237942
#        251385
#
# Disc length: 3531 seconds
#
# Revision: 0
# Processed by: cddbd v1.5.1PL0 Copyright (c) Steve Scherf et al.
# Submitted via: ExactAudioCopy v0.95a5
#
DISCID=1e0dc914
DTITLE=Ivy Smith and Cow Cow Davenport - Complete Recorded Works
DYEAR=1900
DGENRE=
TTITLE0=Rising Sun Blues
TTITLE1=Sad and Blue
TTITLE2=My Own Man Blues
TTITLE3=Third Alley Blues
TTITLE4=Ninety Nine Years Blues
TTITLE5=Cincinnati Southern Blues
TTITLE6=Too Mean to Cry Blues
TTITLE7=Barrel House Mojo
TTITLE8=Shadow Blues
TTITLE9=No Good Man Blues
TTITLE10=Gin House Blues
TTITLE11=Mistreated Mamma Blues
TTITLE12=Doin' That Thing
TTITLE13=Somebody's Got to Knock a Jug
TTITLE14=Southern High Waters Blues
TTITLE15=Wringin' and Twistin' Papa
TTITLE16=Got Jelly on My Mind
TTITLE17=Gypsy Woman Blues
TTITLE18=Milkman Blues
TTITLE19=Alabammy Mistreated
EXTD=
EXTT0=
EXTT1=
EXTT2=
EXTT3=
EXTT4=
EXTT5=
EXTT6=
EXTT7=
EXTT8=
EXTT9=
EXTT10=
EXTT11=
EXTT12=
EXTT13=
EXTT14=
EXTT15=
EXTT16=
EXTT17=
EXTT18=
EXTT19=
PLAYORDER=
